<?xml version="1.0"?>
<svg xmlns="http://www.w3.org/2000/svg" height="512px" viewBox="-50 0 511 511.99952" width="512px"><g><path d="m376.917969 426.78125h-72.738281c3.050781-6.433594 5.597656-13.195312 7.570312-20.238281l49.222656-12.066407c30.050782-7.363281 51.042969-34.125 51.042969-65.054687 0-36.945313-30.050781-66.996094-67-66.996094h-6.390625l4.839844-26.226562c1.761718-9.523438-5.558594-18.324219-15.25-18.324219h-263.484375c-9.683594 0-17.015625 8.792969-15.253907 18.324219 33.292969 180.289062 30.246094 171.507812 39.285157 190.582031h-72.738281c-13.34375 0-20.480469 15.820312-11.570313 25.839844 25.601563 28.695312 45.609375 59.378906 100.511719 59.378906h183.011718c55.195313 0 75.558594-31.421875 100.511719-59.378906 8.90625-10.011719 1.78125-25.839844-11.570312-25.839844zm-88.941407 54.195312c-4.554687 0-180.820312 0-183.011718 0-20.742188 0-39.414063-6.480468-54.308594-23.171874h291.628906c-14.820312 16.605468-33.441406 23.171874-54.308594 23.171874zm-204.601562-232.078124h226.195312c-28.945312 156.433593-26.441406 156.6875-41.066406 177.882812h-144.066406c-14.222656-20.703125-11.816406-19.511719-41.0625-177.882812zm297.617188 80.523437c0 16.449219-11.097657 30.917969-27.402344 34.933594l-35.398438 8.675781 14.707032-79.585938h12.117187c19.835937 0 35.976563 16.144532 35.976563 35.976563zm0 0" data-original="#000000" class="active-path" data-old_color="#000000" fill="#9CECED"/><path d="m152.203125 188.09375c8.757813 18.582031 36.867187 5.417969 28.054687-13.226562-12.652343-26.832032-9.441406-20.023438-15.253906-32.363282-6.753906-14.316406-2.023437-31.804687 11.777344-40.632812 41.40625-26.316406 41.921875-69.277344 20.621094-95.878906-12.8125-16.003907-37.03125 3.355468-24.21875 19.390624 11.914062 14.867188 8.308594 36.738282-7.816406 46.988282-34.96875 22.203125-41.273438 56.109375-28.429688 83.367187zm0 0" data-original="#000000" class="active-path" data-old_color="#000000" fill="#9CECED"/><path d="m212.832031 162.847656c-13.816406 15.6875 10.027344 35.550782 23.28125 20.5l11.449219-13.003906c12.699219-14.417969 16.203125-35.339844 3.59375-56.324219-3.144531-5.234375-2.824219-11.789062.824219-16.691406l19.0625-25.617187c12.253906-16.472657-12.660157-34.957032-24.890625-18.519532l-19.0625 25.617188c-11.183594 15.035156-12.175782 35.132812-2.523438 51.191406 8.371094 13.929688.8125 18.597656-11.734375 32.847656zm0 0" data-original="#000000" class="active-path" data-old_color="#000000" fill="#9CECED"/></g> </svg>
