<?xml version="1.0"?>
<svg xmlns="http://www.w3.org/2000/svg" height="512px" viewBox="0 0 512 512" width="512px"><g><path d="m254.515625 512c-58.425781 0-114.617187-19.898438-160.539063-57.296875-52.8125-43.007813-85.714843-104.007813-92.648437-171.761719-6.304687-61.625 9.984375-123.324218 45.871094-173.734375 35.550781-49.9375 87.765625-85.40625 147.027343-99.875l38.238282-9.332031-22.417969 32.351562c-24.027344 34.671876-34.890625 76.902344-30.59375 118.914063 9.324219 91.117187 86.5 159.203125 176.1875 159.207031 6.011719 0 12.070313-.300781 18.175781-.925781 42.007813-4.300781 81.164063-23.492187 110.253906-54.042969l27.140626-28.503906-1.398438 39.335938c-2.164062 60.964843-26.324219 119.28125-68.027344 164.207031-42.09375 45.351562-99.21875 73.800781-160.84375 80.105469-8.839844.902343-17.660156 1.351562-26.425781 1.351562zm-88.460937-461.851562c-37.613282 16.175781-70.402344 42.507812-94.519532 76.382812-31.675781 44.496094-46.054687 98.964844-40.488281 153.367188 6.117187 59.820312 35.167969 113.671874 81.792969 151.640624s105.246094 55.507813 165.0625 49.390626c54.40625-5.566407 104.832031-30.679688 141.992187-70.710938 28.285157-30.476562 47.433594-67.921875 55.65625-108.027344-28.960937 20.523438-62.945312 33.414063-98.695312 37.070313-113.617188 11.621093-215.496094-71.347657-227.121094-184.957031-3.65625-35.746094 2.085937-71.640626 16.320313-104.15625zm0 0" data-original="#000000" class="active-path" data-old_color="#000000" fill="#FFFB1F"/></g> </svg>
